<svg viewBox="0 0 400 300" xmlns="http://www.w3.org/2000/svg">
  <rect width="400" height="300" fill="#DDF4FF" rx="24" />
  <circle cx="200" cy="150" r="100" fill="#FFFFFF" opacity="0.5" />
  
  <!-- Mascot Big -->
  <path d="M200 240 C 100 240, 100 130, 100 100 C 100 40, 200 20, 200 20 C 200 20, 300 40, 300 100 C 300 130, 300 240, 200 240 Z" fill="#58CC02" />
  <path d="M200 240 C 100 240, 100 130, 100 100 C 100 110, 120 220, 200 220 C 280 220, 300 110, 300 100 C 300 130, 300 240, 200 240 Z" fill="#58A700" />
  
  <!-- Eyes -->
  <circle cx="150" cy="110" r="28" fill="#FFFFFF" />
  <circle cx="250" cy="110" r="28" fill="#FFFFFF" />
  <circle cx="150" cy="110" r="12" fill="#4B4B4B" />
  <circle cx="250" cy="110" r="12" fill="#4B4B4B" />
  <circle cx="145" cy="105" r="4" fill="#FFFFFF" />
  <circle cx="245" cy="105" r="4" fill="#FFFFFF" />

  <!-- Joyful open mouth -->
  <path d="M 170 140 Q 200 180 230 140 Z" fill="#4B4B4B" />
  <path d="M 180 150 Q 200 180 220 150 Z" fill="#FF4B4B" />

  <!-- Stars -->
  <path d="M 50 60 L 60 40 L 70 60 L 90 70 L 70 80 L 60 100 L 50 80 L 30 70 Z" fill="#FFC800" />
  <path d="M 330 200 L 335 185 L 340 200 L 355 205 L 340 210 L 335 225 L 330 210 L 315 205 Z" fill="#1CB0F6" />
</svg>
