<svg viewBox="0 0 40 40" xmlns="http://www.w3.org/2000/svg">
  <!-- Mood 5: Amazing -->
  <circle cx="20" cy="22" r="16" fill="#1899D6" />
  <circle cx="20" cy="20" r="16" fill="#1CB0F6" />
  <!-- Star eyes -->
  <path d="M 14 13 L 15 16 L 18 16 L 16 18 L 17 21 L 14 19 L 11 21 L 12 18 L 10 16 L 13 16 Z" fill="#FFC800" />
  <path d="M 26 13 L 27 16 L 30 16 L 28 18 L 29 21 L 26 19 L 23 21 L 24 18 L 22 16 L 25 16 Z" fill="#FFC800" />
  <!-- Big open mouth -->
  <path d="M 14 24 Q 20 24 26 24 C 26 30 14 30 14 24 Z" fill="#4B4B4B" />
  <path d="M 16 26 Q 20 29 24 26 C 24 28 16 28 16 26 Z" fill="#FF4B4B" />
</svg>
